# xmcd CD database file
#
# Track frame offsets:
#	150
#	19828
#	34530
#	57623
#	71035
#	89835
#	114068
#	132865
#	150823
#	167692
#	183761
#	202679
#	220739
#	241864
#	257239
#	270844
#	290781
#
# Disc length: 4111 seconds
#
# Revision: 0
# Processed by: cddbd v1.4PL0 Copyright (c) Steve Scherf et al.
# Submitted via: CDex 1.40Release
#
DISCID=e3100d11
DTITLE=John Denver - Live
DYEAR=1900
DGENRE=Country
TTITLE0=Rocky Mountain High
TTITLE1=Country Roads
TTITLE2=Back home again
TTITLE3=He'd rather be in Colorado
TTITLE4=Matthew
TTITLE5=Sunshine on my shoulders
TTITLE6=Darrey Farrow
TTITLE7=Wild Montana Skies
TTITLE8=Leaving on a jetplane
TTITLE9=Goor by again
TTITLE10=Bet on the blues
TTITLE11=I'd rather be a cowboy
TTITLE12=Fly away
TTITLE13=I'm sorry
TTITLE14=Annie's song
TTITLE15=Poems. prayers and promisses
TTITLE16=Calypso
EXTD=ID3G: 2
EXTT0=
EXTT1=
EXTT2=
EXTT3=
EXTT4=
EXTT5=
EXTT6=
EXTT7=
EXTT8=
EXTT9=
EXTT10=
EXTT11=
EXTT12=
EXTT13=
EXTT14=
EXTT15=
EXTT16=
PLAYORDER=
